<svg id="wave" style="transform:rotate(180deg); transition: 0.3s" viewBox="0 0 1440 120" version="1.1" xmlns="http://www.w3.org/2000/svg"><defs><linearGradient id="sw-gradient-0" x1="0" x2="0" y1="1" y2="0"><stop stop-color="#0D1F2D" offset="0%"></stop><stop stop-color="#0D1F2D" offset="100%"></stop></linearGradient></defs><path style="transform:translate(0, 0px); opacity:1" fill="url(#sw-gradient-0)" d="M0,36L80,44C160,52,320,68,480,70C640,72,800,60,960,56C1120,52,1280,56,1440,58C1600,60,1760,60,1920,58C2080,56,2240,52,2400,58C2560,64,2720,80,2880,88C3040,96,3200,96,3360,86C3520,76,3680,56,3840,54C4000,52,4160,68,4320,76C4480,84,4640,84,4800,76C4960,68,5120,52,5280,52C5440,52,5600,68,5760,74C5920,80,6080,76,6240,70C6400,64,6560,56,6720,56C6880,56,7040,64,7200,64C7360,64,7520,56,7680,52C7840,48,8000,48,8160,56C8320,64,8480,80,8640,72C8800,64,8960,32,9120,26C9280,20,9440,40,9600,40C9760,40,9920,20,10080,22C10240,24,10400,48,10560,66C10720,84,10880,96,11040,88C11200,80,11360,52,11440,38L11520,24L11520,120L11440,120C11360,120,11200,120,11040,120C10880,120,10720,120,10560,120C10400,120,10240,120,10080,120C9920,120,9760,120,9600,120C9440,120,9280,120,9120,120C8960,120,8800,120,8640,120C8480,120,8320,120,8160,120C8000,120,7840,120,7680,120C7520,120,7360,120,7200,120C7040,120,6880,120,6720,120C6560,120,6400,120,6240,120C6080,120,5920,120,5760,120C5600,120,5440,120,5280,120C5120,120,4960,120,4800,120C4640,120,4480,120,4320,120C4160,120,4000,120,3840,120C3680,120,3520,120,3360,120C3200,120,3040,120,2880,120C2720,120,2560,120,2400,120C2240,120,2080,120,1920,120C1760,120,1600,120,1440,120C1280,120,1120,120,960,120C800,120,640,120,480,120C320,120,160,120,80,120L0,120Z">
</path>
</svg>